/vscmnt/brussel_pixiu_data/_data_brussel/112/vsc11236/PredSimResults/SUBJ09opt3D/SUBJ09opt3D_12158386.mot
version=1
nRows=6
nColumns=50
inDegrees=yes
endheader
                time	         pelvis_tilt	         pelvis_list	     pelvis_rotation	           pelvis_tx	           pelvis_ty	           pelvis_tz	       hip_flexion_r	     hip_adduction_r	      hip_rotation_r	        knee_angle_r	       ankle_angle_r	         mtp_angle_r	       hip_flexion_l	     hip_adduction_l	      hip_rotation_l	        knee_angle_l	       ankle_angle_l	         mtp_angle_l	    lumbar_extension	      lumbar_bending	     lumbar_rotation	 ercspn_r/activation	 intobl_r/activation	 extobl_r/activation	    abd_r/activation	    add_r/activation	hamstrings_r/activation	bifemsh_r/activation	glut_max_r/activation	iliopsoas_r/activation	rect_fem_r/activation	  vasti_r/activation	gastroc_r/activation	 soleus_r/activation	tib_ant_r/activation	 ercspn_l/activation	 intobl_l/activation	 extobl_l/activation	    abd_l/activation	    add_l/activation	hamstrings_l/activation	bifemsh_l/activation	glut_max_l/activation	iliopsoas_l/activation	rect_fem_l/activation	  vasti_l/activation	gastroc_l/activation	 soleus_l/activation	tib_ant_l/activation	
          1.25684381	         -4.23462666	         -0.84130371	          8.25717673	          1.55848632	          0.98859958	         -0.00319276	         29.04447885	         -1.81073753	         -8.84033535	         -6.37898198	          4.29012672	          0.24606176	        -14.37939611	         -2.42008260	         -4.65233627	         -9.70757354	          3.63069202	         36.87774570	        -13.54866935	         -1.23118647	         -6.80346635	          0.02899529	          0.15653943	          0.03052693	          0.00999999	          0.21918952	          0.06805337	          0.13643116	          0.08961275	          0.13445217	          0.01112745	          0.00999999	          0.01462826	          0.00999999	          0.32530781	          0.03238763	          0.00999999	          0.00999999	          0.02646851	          0.01209473	          0.01466007	          0.17582440	          0.01121115	          0.01209475	          0.00999999	          0.00999999	          0.30961805	          0.21395111	          0.01249667	
          1.26941225	         -4.26186774	         -0.97144430	          8.26392537	          1.57862568	          0.98637165	         -0.00249293	         28.98968666	         -1.64349822	         -8.99213445	         -8.25598975	          3.88292631	          0.20890505	        -15.04713658	         -2.77830336	         -5.07480033	        -10.42152120	          2.45433118	         38.46805135	        -13.03533246	         -0.77445477	         -7.01024098	          0.02397348	          0.12942770	          0.02523984	          0.07303723	          0.18470336	          0.06755426	          0.11280207	          0.12982267	          0.11116582	          0.00999999	          0.00999999	          0.01209473	          0.01209473	          0.36448542	          0.02677828	          0.00999999	          0.00999999	          0.02188432	          0.00999999	          0.01212942	          0.14537262	          0.00999999	          0.01000001	          0.00999999	          0.00999999	          0.28117271	          0.19152888	          0.01033232	
          1.28198069	         -4.27131001	         -1.11081832	          8.23705681	          1.59900651	          0.98447572	         -0.00171070	         28.84214869	         -1.46110723	         -9.13286084	        -10.01153098	          3.33531542	          0.20164509	        -15.51202085	         -3.16652693	         -5.51852217	        -11.53334727	          1.16029258	         39.98355735	        -12.51109384	         -0.30731433	         -7.18572449	          0.02331539	          0.10701156	          0.02086844	          0.12785541	          0.20580327	          0.05585425	          0.09326539	          0.16961281	          0.09191254	          0.00999999	          0.00999999	          0.00999999	          0.00999999	          0.40874172	          0.03512046	          0.00999999	          0.00999999	          0.01809408	          0.00999999	          0.01002867	          0.12019492	          0.00999999	          0.03203096	          0.00999999	          0.00999999	          0.23281594	          0.15994207	          0.00999999	
          1.29454912	         -4.26408282	         -1.24908374	          8.17718401	          1.61928596	          0.98310914	         -0.00083224	         28.75091396	         -1.27769478	         -9.26880169	        -11.87886990	          2.79372116	          0.16758996	        -15.66324643	         -3.58334957	         -5.97459673	        -13.20743207	         -0.20207302	         41.25866202	        -12.01735098	          0.15867034	         -7.32789637	          0.03489916	          0.08847777	          0.01725415	          0.17601041	          0.25411168	          0.05217846	          0.07711236	          0.17352088	          0.07599381	          0.00999999	          0.07328170	          0.00999999	          0.00999999	          0.42960935	          0.08848118	          0.00999999	          0.00999999	          0.01496029	          0.03945523	          0.01821993	          0.09937784	          0.00999999	          0.02648339	          0.00999999	          0.00999999	          0.19249355	          0.13224102	          0.00999999	
          1.30711756	         -4.24211025	         -1.38501782	          8.09188978	          1.63927163	          0.98240148	          0.00012699	         28.71574341	         -1.09156491	         -9.36606381	        -13.89618982	          2.57777358	          0.12812848	        -15.42392710	         -4.03630903	         -6.45341021	        -15.54940749	         -1.60135265	         42.09012059	        -11.57096933	          0.62201229	         -7.43986718	          0.02885483	          0.07315393	          0.01426583	          0.20113931	          0.27375602	          0.04816189	          0.06375694	          0.18778509	          0.06283212	          0.00999999	          0.17155553	          0.00999999	          0.00999999	          0.43063693	          0.10075255	          0.00999999	          0.00999999	          0.01236925	          0.12226146	          0.02336721	          0.08216617	          0.00999999	          0.03566513	          0.00999999	          0.00999999	          0.15915477	          0.10933763	          0.00999999	
          1.31968600	         -4.20914981	         -1.50503521	          7.97954854	          1.65881339	          0.98248298	          0.00113441	         28.63290684	         -0.89975900	         -9.42202754	        -15.86070097	          2.70546364	          0.09389227	        -14.73324220	         -4.52041582	         -7.00334236	        -18.64973482	         -2.94223588	         42.07683134	        -11.18604630	          1.06938703	         -7.51790816	          0.02385734	          0.06048409	          0.01179507	          0.20828353	          0.30068818	          0.04953459	          0.05271460	          0.18947712	          0.05194996	          0.00999999	          0.20588995	          0.00999999	          0.00999999	          0.40329612	          0.09886016	          0.00999999	          0.00999999	          0.01022697	          0.17396562	          0.02205288	          0.06793546	          0.00999999	          0.02948814	          0.00999999	          0.00999999	          0.13159007	          0.09040098	          0.00999999	
